<?xml version="1.0" standalone="no"?>
<!DOCTYPE svg PUBLIC "-//W3C//DTD SVG 20010904//EN"
 "http://www.w3.org/TR/2001/REC-SVG-20010904/DTD/svg10.dtd">
<svg version="1.0" xmlns="http://www.w3.org/2000/svg"
 width="1063.000000pt" height="1063.000000pt" viewBox="0 0 1063.000000 1063.000000"
 preserveAspectRatio="xMidYMid meet">
<metadata>
Created by potrace 1.14, written by Peter Selinger 2001-2017
</metadata>
<g transform="translate(0.000000,1063.000000) scale(0.100000,-0.100000)"
fill="#000000" stroke="none">
<path d="M2305 9114 c-225 -113 -421 -213 -434 -221 -24 -16 -16 -21 410 -234
l434 -218 2622 0 2623 -1 435 217 c239 120 435 220 435 223 0 3 -195 103 -434
223 l-434 217 -2623 -1 -2624 0 -410 -205z"/>
<path d="M1140 8569 c-30 -39 -65 -82 -76 -97 -12 -15 -97 -124 -190 -242 -92
-118 -190 -244 -219 -280 -28 -36 -93 -119 -145 -185 -52 -66 -126 -160 -165
-210 -39 -49 -86 -110 -105 -135 -19 -25 -40 -52 -47 -60 -81 -101 -84 -110
-33 -110 17 0 146 -30 287 -66 561 -142 1188 -302 1923 -488 183 -47 336 -84
338 -82 3 4 86 274 152 496 16 52 83 275 150 495 128 420 160 530 160 543 0 4
-26 13 -57 21 -32 7 -330 80 -663 163 -333 82 -612 151 -620 153 -8 2 -71 17
-140 35 -286 72 -481 120 -488 120 -4 0 -32 -32 -62 -71z"/>
<path d="M9329 8596 c-3 -3 -18 -7 -34 -10 -17 -3 -45 -10 -63 -15 -18 -5 -35
-10 -37 -10 -3 -1 -6 -1 -7 -2 -8 -2 -36 -9 -59 -13 -15 -4 -85 -20 -155 -37
-71 -17 -136 -32 -144 -34 -8 -2 -80 -19 -160 -38 -80 -20 -156 -38 -170 -40
-14 -3 -45 -10 -70 -17 -25 -7 -52 -13 -60 -15 -26 -5 -280 -66 -400 -95 -63
-16 -126 -31 -140 -34 -37 -6 -363 -85 -379 -91 -9 -4 -10 -9 -3 -18 5 -6 33
-91 62 -187 28 -96 78 -265 111 -375 33 -110 62 -207 64 -215 3 -8 15 -51 29
-95 13 -44 43 -141 65 -215 131 -438 126 -425 152 -423 50 6 2659 658 2657
665 -3 5 -143 157 -288 309 -19 20 -84 90 -145 154 -60 65 -126 135 -145 155
-49 52 -259 275 -316 335 -130 139 -302 321 -322 342 -22 22 -34 28 -43 19z"/>
<path d="M3521 8033 c-11 -38 -29 -102 -41 -143 -20 -72 -62 -212 -97 -330
-10 -30 -18 -59 -19 -65 -1 -5 -23 -82 -49 -170 -81 -280 -133 -457 -170 -585
-19 -69 -38 -133 -41 -142 -5 -17 105 -18 2221 -18 2117 0 2227 1 2222 18 -3
9 -60 197 -127 417 -193 634 -260 856 -276 910 -8 28 -24 78 -35 113 l-21 62
-1773 0 -1774 0 -20 -67z"/>
<path d="M155 6846 c66 -66 211 -215 320 -331 272 -285 364 -382 482 -505 55
-58 129 -134 163 -170 34 -36 134 -141 223 -234 89 -93 178 -186 197 -206 19
-20 114 -119 210 -220 96 -101 192 -201 214 -224 21 -23 66 -70 100 -106 61
-64 184 -202 536 -605 96 -110 177 -202 180 -205 3 -3 34 -39 70 -80 36 -41
79 -91 96 -110 63 -71 343 -390 479 -545 77 -88 145 -165 150 -171 6 -6 35
-40 66 -75 86 -99 298 -340 328 -374 25 -29 342 -389 461 -525 31 -36 78 -90
105 -120 88 -102 88 -102 9 68 -19 41 -34 75 -34 78 0 2 -13 32 -29 66 -47
104 -68 151 -147 331 -42 95 -89 200 -105 235 -16 35 -29 65 -29 67 0 2 -15
37 -34 77 -19 40 -51 111 -71 158 -21 47 -51 114 -67 150 -16 36 -49 110 -73
165 -24 55 -59 136 -80 180 -20 44 -42 98 -49 120 -11 33 -72 183 -131 320 -7
17 -83 199 -170 405 -86 206 -163 389 -170 405 -14 32 -130 308 -172 410 -14
33 -31 74 -38 90 -8 17 -35 81 -60 144 -26 63 -50 121 -55 130 -4 9 -18 41
-30 71 -54 132 -175 417 -219 519 l-36 83 -70 18 c-38 9 -140 34 -225 54 -85
20 -171 41 -190 46 -31 9 -311 76 -351 85 -27 6 -228 54 -314 76 -44 11 -89
22 -100 24 -11 3 -58 14 -105 25 -82 20 -151 37 -470 114 -80 19 -307 73 -505
121 -198 47 -365 87 -370 89 -6 2 44 -51 110 -118z"/>
<path d="M10519 6945 c-5 -4 -215 -56 -414 -102 -33 -7 -67 -15 -75 -17 -12
-3 -138 -34 -210 -51 -100 -24 -342 -82 -440 -105 -69 -16 -210 -50 -315 -76
-104 -25 -197 -47 -205 -49 -8 -2 -139 -33 -290 -69 -151 -37 -284 -68 -295
-70 -25 -6 -302 -73 -331 -82 -24 -6 -27 -12 -96 -179 -27 -66 -129 -297 -225
-515 -96 -217 -272 -613 -390 -880 -118 -267 -241 -543 -273 -615 -32 -71
-119 -267 -193 -435 -74 -168 -278 -627 -452 -1020 -175 -393 -321 -726 -327
-740 -11 -29 -9 -27 63 65 76 98 187 226 644 740 219 248 523 590 674 760 221
249 418 467 506 561 8 9 91 99 225 244 14 15 72 78 130 140 58 62 113 122 123
133 10 12 66 73 125 136 59 64 134 145 167 181 33 35 86 92 117 125 31 33 65
69 75 81 10 12 65 72 123 134 58 62 112 121 120 130 9 10 63 69 121 131 59 63
117 126 130 140 21 23 211 228 249 269 8 9 65 70 125 135 61 66 117 126 125
135 240 259 241 260 375 406 55 59 130 140 166 179 135 145 162 175 157 180
-2 3 -7 3 -9 0z"/>
<path d="M3110 6270 c-7 -4 68 -185 159 -385 9 -20 42 -92 216 -485 47 -107
95 -213 105 -235 10 -22 33 -74 50 -115 18 -41 46 -103 61 -138 16 -34 29 -64
29 -66 0 -2 15 -37 34 -78 19 -40 78 -172 131 -293 54 -121 113 -253 131 -293
19 -41 34 -75 34 -77 0 -2 13 -32 29 -67 16 -35 63 -139 104 -233 41 -93 84
-190 95 -215 11 -25 103 -229 202 -455 100 -225 190 -428 200 -450 10 -22 55
-123 100 -225 44 -102 87 -198 95 -215 35 -78 145 -327 145 -330 0 -2 18 -42
40 -89 22 -47 40 -87 40 -90 0 -2 18 -44 41 -93 59 -127 83 -181 109 -241 21
-49 40 -68 40 -39 0 7 9 31 19 53 10 21 207 462 436 979 465 1048 446 1006
486 1093 16 35 29 65 29 67 0 2 15 36 33 77 19 40 76 168 127 283 51 116 108
243 126 283 19 40 34 75 34 77 0 2 13 32 29 67 40 88 573 1288 633 1428 28 63
54 120 58 125 4 6 14 29 23 52 9 23 26 64 38 90 12 26 32 71 44 98 42 93 55
128 50 134 -7 7 -4344 8 -4355 1z"/>
</g>
</svg>
